<svg xmlns="http://www.w3.org/2000/svg" viewBox="0 0 400 360">
<rect width="400" height="360" fill="#2C2C3A"/>
<defs>
<clipPath id="glass_clip_0"><path d="M111.0,70.0 L111.0,100.0 Q111.0,100.0 111.0,114.0 Q111.0,128.0 111.5,132.5 Q112.0,137.0 114.0,146.0 L114.0,146.0 Q114.0,146.0 114.5,147.0 Q115.0,148.0 115.5,148.5 Q116.0,149.0 116.5,150.0 Q117.0,151.0 117.5,151.0 Q118.0,151.0 119.0,151.5 Q120.0,152.0 121.0,151.5 Q122.0,151.0 122.5,151.0 Q123.0,151.0 123.5,150.0 Q124.0,149.0 124.5,148.5 Q125.0,148.0 126.0,146.0 L126.0,146.0 Q126.0,146.0 127.0,141.5 Q128.0,137.0 128.5,132.5 Q129.0,128.0 129.0,114.0 Q129.0,100.0 129.0,70.0 Z"/></clipPath>
<clipPath id="offset_clip_1"><path d="M111.0,70.0 L111.0,100.0 Q111.0,100.0 111.0,114.0 Q111.0,128.0 111.5,132.5 Q112.0,137.0 114.0,146.0 L114.0,146.0 Q114.0,146.0 114.5,147.0 Q115.0,148.0 115.5,148.5 Q116.0,149.0 116.5,150.0 Q117.0,151.0 117.5,151.0 Q118.0,151.0 119.0,151.5 Q120.0,152.0 121.0,151.5 Q122.0,151.0 122.5,151.0 Q123.0,151.0 123.5,150.0 Q124.0,149.0 124.5,148.5 Q125.0,148.0 126.0,146.0 L126.0,146.0 Q126.0,146.0 127.0,141.5 Q128.0,137.0 128.5,132.5 Q129.0,128.0 129.0,114.0 Q129.0,100.0 129.0,70.0 Z" transform="translate(80.0,40.0)"/></clipPath>
<linearGradient id="grad_2" x1="0" y1="0" x2="0" y2="1"><stop offset="0%" stop-color="#c3884a"/><stop offset="100%" stop-color="#B8732A"/></linearGradient>
<linearGradient id="grad_3" x1="0" y1="0" x2="0" y2="1"><stop offset="0%" stop-color="#84414a"/><stop offset="100%" stop-color="#6E1F2A"/></linearGradient>
</defs>
<g transform="translate(80.0,40.0)">
<path d="M105.0,70.0 L105.0,100.0 Q105.0,100.0 105.0,115.0 Q105.0,130.0 106.0,135.0 Q107.0,140.0 110.0,150.0 L110.0,150.0 Q110.0,150.0 110.5,151.0 Q111.0,152.0 112.0,153.0 Q113.0,154.0 114.0,155.0 Q115.0,156.0 116.0,156.5 Q117.0,157.0 118.5,157.5 Q120.0,158.0 121.5,157.5 Q123.0,157.0 124.0,156.5 Q125.0,156.0 126.0,155.0 Q127.0,154.0 128.0,153.0 Q129.0,152.0 130.0,150.0 L130.0,150.0 Q130.0,150.0 131.5,145.0 Q133.0,140.0 134.0,135.0 Q135.0,130.0 135.0,115.0 Q135.0,100.0 135.0,70.0 Z M116.0,158.0 L116.0,181.0 L116.0,205.0 L124.0,205.0 L124.0,181.0 L124.0,158.0 Z M116.0,205.0 L114.0,206.0 L109.0,207.0 L105.0,207.0 L100.0,208.0 L95.0,208.0 L95.0,208.0 L95.0,209.0 L96.0,210.0 L120.0,210.0 L144.0,210.0 L145.0,209.0 L145.0,208.0 L145.0,208.0 L140.0,208.0 L135.0,207.0 L131.0,207.0 L126.0,206.0 L124.0,205.0 Z" fill="rgba(255,255,255,0.95)" stroke="rgba(200,200,210,0.8)" stroke-width="1.5" stroke-linejoin="round"/>
</g>
<g clip-path="url(#offset_clip_1)">
<rect x="191.0" y="142.8" width="18.0" height="69.19999999999999" fill="url(#grad_2)"><title>Rye</title></rect><rect x="191.0" y="118.20000000000002" width="18.0" height="24.599999999999998" fill="url(#grad_3)"><title>Sweet Vermouth</title></rect>
</g>
<path d="M209.0,130.50000000000003 L217.0,130.50000000000003 L217.0,130.50000000000003 L221.0,130.50000000000003" fill="none" stroke="#888" stroke-width="0.75"/>
<text x="223.0" y="134.16666666666669" font-family="system-ui, sans-serif" font-size="11.0px" fill="#ccc">Sweet Vermouth</text>
<path d="M209.0,167.4 L217.0,167.4 L217.0,167.4 L221.0,167.4" fill="none" stroke="#888" stroke-width="0.75"/>
<text x="223.0" y="171.06666666666666" font-family="system-ui, sans-serif" font-size="11.0px" fill="#ccc">Rye</text>
</svg>
