<svg xmlns="http://www.w3.org/2000/svg" viewBox="0 0 400 360">
<rect width="400" height="360" fill="#2C2C3A"/>
<defs>
<clipPath id="glass_clip_0"><path d="M98.0,50.0 L96.0,60.0 Q96.0,60.0 95.0,65.0 Q94.0,70.0 93.0,75.0 Q92.0,80.0 92.0,85.0 Q92.0,90.0 92.5,95.0 Q93.0,100.0 94.0,105.0 Q95.0,110.0 96.5,115.0 Q98.0,120.0 100.0,124.0 Q102.0,128.0 104.0,134.5 Q106.0,141.0 109.0,154.0 L109.0,154.0 Q109.0,154.0 110.0,155.5 Q111.0,157.0 112.0,158.0 Q113.0,159.0 114.0,159.5 Q115.0,160.0 116.5,160.5 Q118.0,161.0 119.0,161.0 Q120.0,161.0 121.0,161.0 Q122.0,161.0 123.5,160.5 Q125.0,160.0 126.0,159.5 Q127.0,159.0 128.0,158.0 Q129.0,157.0 131.0,154.0 L131.0,154.0 Q131.0,154.0 132.5,147.5 Q134.0,141.0 136.0,134.5 Q138.0,128.0 140.0,124.0 Q142.0,120.0 143.5,115.0 Q145.0,110.0 146.0,105.0 Q147.0,100.0 147.5,95.0 Q148.0,90.0 148.0,85.0 Q148.0,80.0 147.0,75.0 Q146.0,70.0 145.0,65.0 Q144.0,60.0 142.0,50.0 Z"/></clipPath>
<clipPath id="offset_clip_1"><path d="M98.0,50.0 L96.0,60.0 Q96.0,60.0 95.0,65.0 Q94.0,70.0 93.0,75.0 Q92.0,80.0 92.0,85.0 Q92.0,90.0 92.5,95.0 Q93.0,100.0 94.0,105.0 Q95.0,110.0 96.5,115.0 Q98.0,120.0 100.0,124.0 Q102.0,128.0 104.0,134.5 Q106.0,141.0 109.0,154.0 L109.0,154.0 Q109.0,154.0 110.0,155.5 Q111.0,157.0 112.0,158.0 Q113.0,159.0 114.0,159.5 Q115.0,160.0 116.5,160.5 Q118.0,161.0 119.0,161.0 Q120.0,161.0 121.0,161.0 Q122.0,161.0 123.5,160.5 Q125.0,160.0 126.0,159.5 Q127.0,159.0 128.0,158.0 Q129.0,157.0 131.0,154.0 L131.0,154.0 Q131.0,154.0 132.5,147.5 Q134.0,141.0 136.0,134.5 Q138.0,128.0 140.0,124.0 Q142.0,120.0 143.5,115.0 Q145.0,110.0 146.0,105.0 Q147.0,100.0 147.5,95.0 Q148.0,90.0 148.0,85.0 Q148.0,80.0 147.0,75.0 Q146.0,70.0 145.0,65.0 Q144.0,60.0 142.0,50.0 Z" transform="translate(80.0,40.0)"/></clipPath>
<linearGradient id="grad_2" x1="0" y1="0" x2="0" y2="1"><stop offset="0%" stop-color="#c3884a"/><stop offset="100%" stop-color="#B8732A"/></linearGradient>
<linearGradient id="grad_3" x1="0" y1="0" x2="0" y2="1"><stop offset="0%" stop-color="#84414a"/><stop offset="100%" stop-color="#6E1F2A"/></linearGradient>
</defs>
<g transform="translate(80.0,40.0)">
<path d="M92.0,50.0 L90.0,60.0 Q90.0,60.0 89.0,65.0 Q88.0,70.0 87.0,75.0 Q86.0,80.0 86.0,85.0 Q86.0,90.0 86.5,95.0 Q87.0,100.0 88.0,105.0 Q89.0,110.0 90.5,115.0 Q92.0,120.0 94.0,125.0 Q96.0,130.0 98.5,137.5 Q101.0,145.0 105.0,160.0 L105.0,160.0 Q105.0,160.0 106.0,161.5 Q107.0,163.0 108.0,164.0 Q109.0,165.0 110.5,165.5 Q112.0,166.0 113.5,166.5 Q115.0,167.0 117.5,167.0 Q120.0,167.0 122.5,167.0 Q125.0,167.0 126.5,166.5 Q128.0,166.0 129.5,165.5 Q131.0,165.0 132.0,164.0 Q133.0,163.0 135.0,160.0 L135.0,160.0 Q135.0,160.0 137.0,152.5 Q139.0,145.0 141.5,137.5 Q144.0,130.0 146.0,125.0 Q148.0,120.0 149.5,115.0 Q151.0,110.0 152.0,105.0 Q153.0,100.0 153.5,95.0 Q154.0,90.0 154.0,85.0 Q154.0,80.0 153.0,75.0 Q152.0,70.0 151.0,65.0 Q150.0,60.0 148.0,50.0 Z M115.0,167.0 L115.0,178.0 L115.0,190.0 L125.0,190.0 L125.0,178.0 L125.0,167.0 Z M115.0,190.0 L113.0,193.0 L109.0,196.0 L105.0,199.0 L100.0,202.0 L95.0,205.0 L95.0,205.0 L95.0,207.0 L95.0,209.0 L96.0,210.0 L120.0,210.0 L144.0,210.0 L145.0,209.0 L145.0,207.0 L145.0,205.0 L145.0,205.0 L140.0,202.0 L135.0,199.0 L131.0,196.0 L127.0,193.0 L125.0,190.0 Z" fill="rgba(255,255,255,0.95)" stroke="rgba(200,200,210,0.8)" stroke-width="1.5" stroke-linejoin="round"/>
</g>
<g clip-path="url(#offset_clip_1)">
<rect x="172.0" y="134.4" width="56.0" height="86.6" fill="url(#grad_2)"><title>Rye</title></rect><rect x="172.0" y="101.10000000000001" width="56.0" height="33.3" fill="url(#grad_3)"><title>Sweet Vermouth</title></rect>
</g>
<path d="M228.0,117.75 L236.0,117.75 L236.0,117.75 L240.0,117.75" fill="none" stroke="#888" stroke-width="0.75"/>
<text x="242.0" y="121.41666666666667" font-family="system-ui, sans-serif" font-size="11.0px" fill="#ccc">Sweet Vermouth</text>
<path d="M228.0,167.7 L236.0,167.7 L236.0,167.7 L240.0,167.7" fill="none" stroke="#888" stroke-width="0.75"/>
<text x="242.0" y="171.36666666666665" font-family="system-ui, sans-serif" font-size="11.0px" fill="#ccc">Rye</text>
</svg>
