<svg xmlns="http://www.w3.org/2000/svg" viewBox="0 0 400 360">
<rect width="400" height="360" fill="#2C2C3A"/>
<defs>
<clipPath id="glass_clip_0"><path d="M111.0,70.0 L111.0,100.0 Q111.0,100.0 111.0,114.5 Q111.0,129.0 111.0,143.5 Q111.0,158.0 111.5,161.0 Q112.0,164.0 114.0,170.0 L114.0,170.0 Q114.0,170.0 114.5,171.0 Q115.0,172.0 115.5,172.5 Q116.0,173.0 116.5,173.5 Q117.0,174.0 117.5,174.5 Q118.0,175.0 119.0,175.5 Q120.0,176.0 121.0,175.5 Q122.0,175.0 122.5,174.5 Q123.0,174.0 123.5,173.5 Q124.0,173.0 124.5,172.5 Q125.0,172.0 126.0,170.0 L126.0,170.0 Q126.0,170.0 127.0,167.0 Q128.0,164.0 128.5,161.0 Q129.0,158.0 129.0,143.5 Q129.0,129.0 129.0,114.5 Q129.0,100.0 129.0,70.0 Z"/></clipPath>
<clipPath id="offset_clip_1"><path d="M111.0,70.0 L111.0,100.0 Q111.0,100.0 111.0,114.5 Q111.0,129.0 111.0,143.5 Q111.0,158.0 111.5,161.0 Q112.0,164.0 114.0,170.0 L114.0,170.0 Q114.0,170.0 114.5,171.0 Q115.0,172.0 115.5,172.5 Q116.0,173.0 116.5,173.5 Q117.0,174.0 117.5,174.5 Q118.0,175.0 119.0,175.5 Q120.0,176.0 121.0,175.5 Q122.0,175.0 122.5,174.5 Q123.0,174.0 123.5,173.5 Q124.0,173.0 124.5,172.5 Q125.0,172.0 126.0,170.0 L126.0,170.0 Q126.0,170.0 127.0,167.0 Q128.0,164.0 128.5,161.0 Q129.0,158.0 129.0,143.5 Q129.0,129.0 129.0,114.5 Q129.0,100.0 129.0,70.0 Z" transform="translate(80.0,40.0)"/></clipPath>
<linearGradient id="grad_2" x1="0" y1="0" x2="0" y2="1"><stop offset="0%" stop-color="#c3884a"/><stop offset="100%" stop-color="#B8732A"/></linearGradient>
<linearGradient id="grad_3" x1="0" y1="0" x2="0" y2="1"><stop offset="0%" stop-color="#84414a"/><stop offset="100%" stop-color="#6E1F2A"/></linearGradient>
</defs>
<g transform="translate(80.0,40.0)">
<path d="M105.0,70.0 L105.0,100.0 Q105.0,100.0 105.0,115.0 Q105.0,130.0 105.0,145.0 Q105.0,160.0 106.0,164.0 Q107.0,168.0 110.0,175.0 L110.0,175.0 Q110.0,175.0 110.5,176.0 Q111.0,177.0 111.5,178.0 Q112.0,179.0 113.0,179.5 Q114.0,180.0 115.5,180.5 Q117.0,181.0 118.5,181.5 Q120.0,182.0 121.5,181.5 Q123.0,181.0 124.5,180.5 Q126.0,180.0 127.0,179.5 Q128.0,179.0 128.5,178.0 Q129.0,177.0 130.0,175.0 L130.0,175.0 Q130.0,175.0 131.5,171.5 Q133.0,168.0 134.0,164.0 Q135.0,160.0 135.0,145.0 Q135.0,130.0 135.0,115.0 Q135.0,100.0 135.0,70.0 Z M116.0,181.0 L116.0,193.0 L116.0,205.0 L124.0,205.0 L124.0,193.0 L124.0,181.0 Z M116.0,205.0 L113.0,206.0 L108.0,207.0 L103.0,207.0 L99.0,208.0 L95.0,208.0 L95.0,208.0 L95.0,209.0 L96.0,210.0 L120.0,210.0 L144.0,210.0 L145.0,209.0 L145.0,208.0 L145.0,208.0 L141.0,208.0 L137.0,207.0 L132.0,207.0 L127.0,206.0 L124.0,205.0 Z" fill="rgba(255,255,255,0.95)" stroke="rgba(200,200,210,0.8)" stroke-width="1.5" stroke-linejoin="round"/>
</g>
<g clip-path="url(#offset_clip_1)">
<rect x="191.0" y="152.4" width="18.0" height="83.6" fill="url(#grad_2)"><title>Rye</title></rect><rect x="191.0" y="120.60000000000001" width="18.0" height="31.8" fill="url(#grad_3)"><title>Sweet Vermouth</title></rect>
</g>
<path d="M209.0,136.5 L217.0,136.5 L217.0,136.5 L221.0,136.5" fill="none" stroke="#888" stroke-width="0.75"/>
<text x="223.0" y="140.16666666666666" font-family="system-ui, sans-serif" font-size="11.0px" fill="#ccc">Sweet Vermouth</text>
<path d="M209.0,184.20000000000002 L217.0,184.20000000000002 L217.0,184.20000000000002 L221.0,184.20000000000002" fill="none" stroke="#888" stroke-width="0.75"/>
<text x="223.0" y="187.86666666666667" font-family="system-ui, sans-serif" font-size="11.0px" fill="#ccc">Rye</text>
</svg>
