<svg xmlns="http://www.w3.org/2000/svg" viewBox="0 0 400 360">
<rect width="400" height="360" fill="#2C2C3A"/>
<defs>
<clipPath id="glass_clip_0"><path d="M106.0,90.0 L109.0,98.0 Q109.0,98.0 110.5,102.0 Q112.0,106.0 113.5,110.0 Q115.0,114.0 117.0,123.0 L117.0,123.0 Q117.0,123.0 117.5,123.5 Q118.0,124.0 118.5,124.5 Q119.0,125.0 119.5,125.5 Q120.0,126.0 120.5,125.5 Q121.0,125.0 121.5,124.5 Q122.0,124.0 123.0,123.0 L123.0,123.0 Q123.0,123.0 124.0,118.5 Q125.0,114.0 126.5,110.0 Q128.0,106.0 129.5,102.0 Q131.0,98.0 134.0,90.0 Z"/></clipPath>
<clipPath id="offset_clip_1"><path d="M106.0,90.0 L109.0,98.0 Q109.0,98.0 110.5,102.0 Q112.0,106.0 113.5,110.0 Q115.0,114.0 117.0,123.0 L117.0,123.0 Q117.0,123.0 117.5,123.5 Q118.0,124.0 118.5,124.5 Q119.0,125.0 119.5,125.5 Q120.0,126.0 120.5,125.5 Q121.0,125.0 121.5,124.5 Q122.0,124.0 123.0,123.0 L123.0,123.0 Q123.0,123.0 124.0,118.5 Q125.0,114.0 126.5,110.0 Q128.0,106.0 129.5,102.0 Q131.0,98.0 134.0,90.0 Z" transform="translate(80.0,40.0)"/></clipPath>
<linearGradient id="grad_2" x1="0" y1="0" x2="0" y2="1"><stop offset="0%" stop-color="#c398ab"/><stop offset="100%" stop-color="#B8869C"/></linearGradient>
</defs>
<g transform="translate(80.0,40.0)">
<path d="M100.0,90.0 L104.0,100.0 Q104.0,100.0 106.0,105.0 Q108.0,110.0 110.0,115.0 Q112.0,120.0 116.0,130.0 L116.0,130.0 Q116.0,130.0 116.5,130.5 Q117.0,131.0 117.5,131.5 Q118.0,132.0 118.5,132.0 Q119.0,132.0 119.5,132.5 Q120.0,133.0 120.5,132.5 Q121.0,132.0 121.5,132.0 Q122.0,132.0 122.5,131.5 Q123.0,131.0 124.0,130.0 L124.0,130.0 Q124.0,130.0 126.0,125.0 Q128.0,120.0 130.0,115.0 Q132.0,110.0 134.0,105.0 Q136.0,100.0 140.0,90.0 Z M117.0,133.0 L117.0,169.0 L117.0,205.0 L123.0,205.0 L123.0,169.0 L123.0,133.0 Z M117.0,205.0 L114.0,206.0 L109.0,207.0 L105.0,207.0 L101.0,208.0 L98.0,208.0 L98.0,208.0 L98.0,209.0 L99.0,210.0 L120.0,210.0 L141.0,210.0 L142.0,209.0 L142.0,208.0 L142.0,208.0 L139.0,208.0 L135.0,207.0 L131.0,207.0 L126.0,206.0 L123.0,205.0 Z" fill="rgba(255,255,255,0.95)" stroke="rgba(200,200,210,0.8)" stroke-width="1.5" stroke-linejoin="round"/>
</g>
<g clip-path="url(#offset_clip_1)">
<rect x="186.0" y="133.6" width="28.0" height="52.4" fill="url(#grad_2)"><title>Amaretto</title></rect>
</g>
<path d="M214.0,149.79999999999998 L222.0,149.79999999999998 L222.0,149.79999999999998 L226.0,149.79999999999998" fill="none" stroke="#888" stroke-width="0.75"/>
<text x="228.0" y="153.46666666666664" font-family="system-ui, sans-serif" font-size="11.0px" fill="#ccc">Amaretto</text>
</svg>
