<svg xmlns="http://www.w3.org/2000/svg" viewBox="0 0 400 360">
<rect width="400" height="360" fill="#2C2C3A"/>
<defs>
<clipPath id="glass_clip_0"><path d="M91.0,60.0 L93.0,80.0 Q93.0,80.0 94.5,90.0 Q96.0,100.0 97.0,110.0 Q98.0,120.0 99.0,130.0 Q100.0,140.0 101.0,150.0 Q102.0,160.0 104.0,177.0 L104.0,177.0 Q104.0,177.0 104.0,178.0 Q104.0,179.0 104.5,180.5 Q105.0,182.0 105.5,183.0 Q106.0,184.0 107.0,185.0 Q108.0,186.0 109.5,187.0 Q111.0,188.0 112.0,188.5 Q113.0,189.0 114.5,189.0 Q116.0,189.0 120.0,189.0 Q124.0,189.0 125.5,189.0 Q127.0,189.0 128.0,188.5 Q129.0,188.0 130.5,187.0 Q132.0,186.0 133.0,185.0 Q134.0,184.0 134.5,183.0 Q135.0,182.0 135.5,180.5 Q136.0,179.0 136.0,177.0 L136.0,177.0 Q136.0,177.0 137.0,168.5 Q138.0,160.0 139.0,150.0 Q140.0,140.0 141.0,130.0 Q142.0,120.0 143.0,110.0 Q144.0,100.0 145.5,90.0 Q147.0,80.0 149.0,60.0 Z"/></clipPath>
<clipPath id="offset_clip_1"><path d="M91.0,60.0 L93.0,80.0 Q93.0,80.0 94.5,90.0 Q96.0,100.0 97.0,110.0 Q98.0,120.0 99.0,130.0 Q100.0,140.0 101.0,150.0 Q102.0,160.0 104.0,177.0 L104.0,177.0 Q104.0,177.0 104.0,178.0 Q104.0,179.0 104.5,180.5 Q105.0,182.0 105.5,183.0 Q106.0,184.0 107.0,185.0 Q108.0,186.0 109.5,187.0 Q111.0,188.0 112.0,188.5 Q113.0,189.0 114.5,189.0 Q116.0,189.0 120.0,189.0 Q124.0,189.0 125.5,189.0 Q127.0,189.0 128.0,188.5 Q129.0,188.0 130.5,187.0 Q132.0,186.0 133.0,185.0 Q134.0,184.0 134.5,183.0 Q135.0,182.0 135.5,180.5 Q136.0,179.0 136.0,177.0 L136.0,177.0 Q136.0,177.0 137.0,168.5 Q138.0,160.0 139.0,150.0 Q140.0,140.0 141.0,130.0 Q142.0,120.0 143.0,110.0 Q144.0,100.0 145.5,90.0 Q147.0,80.0 149.0,60.0 Z" transform="translate(80.0,40.0)"/></clipPath>
</defs>
<g transform="translate(80.0,40.0)">
<path d="M85.0,60.0 L87.0,80.0 Q87.0,80.0 88.5,90.0 Q90.0,100.0 91.0,110.0 Q92.0,120.0 93.0,130.0 Q94.0,140.0 95.0,150.0 Q96.0,160.0 98.0,185.0 L98.0,185.0 Q98.0,185.0 98.0,186.0 Q98.0,187.0 98.5,188.0 Q99.0,189.0 99.5,190.0 Q100.0,191.0 101.0,192.0 Q102.0,193.0 103.0,193.5 Q104.0,194.0 105.0,194.5 Q106.0,195.0 107.0,195.0 Q108.0,195.0 120.0,195.0 Q132.0,195.0 133.0,195.0 Q134.0,195.0 135.0,194.5 Q136.0,194.0 137.0,193.5 Q138.0,193.0 139.0,192.0 Q140.0,191.0 140.5,190.0 Q141.0,189.0 141.5,188.0 Q142.0,187.0 142.0,185.0 L142.0,185.0 Q142.0,185.0 143.0,172.5 Q144.0,160.0 145.0,150.0 Q146.0,140.0 147.0,130.0 Q148.0,120.0 149.0,110.0 Q150.0,100.0 151.5,90.0 Q153.0,80.0 155.0,60.0 Z" fill="rgba(255,255,255,0.95)" stroke="rgba(200,200,210,0.8)" stroke-width="1.5" stroke-linejoin="round"/>
</g>
<g clip-path="url(#offset_clip_1)">
<rect x="171.0" y="112.89999999999999" width="58.0" height="136.10000000000002" fill="#C8C8C8" stroke="#808080" stroke-dasharray="4 2" stroke-width="1"><title>ipa</title></rect>
</g>
<path d="M229.0,170.95 L237.0,170.95 L237.0,170.95 L241.0,170.95" fill="none" stroke="#888" stroke-width="0.75"/>
<text x="243.0" y="174.61666666666665" font-family="system-ui, sans-serif" font-size="11.0px" fill="#ccc">ipa</text>
</svg>
