<svg xmlns="http://www.w3.org/2000/svg" viewBox="0 0 400 360">
<rect width="400" height="360" fill="#2C2C3A"/>
<defs>
<clipPath id="glass_clip_0"><path d="M98.0,70.0 L101.0,82.0 Q101.0,82.0 103.0,88.0 Q105.0,94.0 106.0,99.5 Q107.0,105.0 105.0,110.0 Q103.0,115.0 101.0,120.0 Q99.0,125.0 97.5,130.0 Q96.0,135.0 96.0,140.0 Q96.0,145.0 98.0,148.5 Q100.0,152.0 103.0,154.5 Q106.0,157.0 114.0,160.0 L114.0,160.0 Q114.0,160.0 115.0,161.5 Q116.0,163.0 116.5,164.0 Q117.0,165.0 118.0,165.5 Q119.0,166.0 119.5,166.0 Q120.0,166.0 120.5,166.0 Q121.0,166.0 122.0,165.5 Q123.0,165.0 123.5,164.0 Q124.0,163.0 126.0,160.0 L126.0,160.0 Q126.0,160.0 130.0,158.5 Q134.0,157.0 137.0,154.5 Q140.0,152.0 142.0,148.5 Q144.0,145.0 144.0,140.0 Q144.0,135.0 142.5,130.0 Q141.0,125.0 139.0,120.0 Q137.0,115.0 135.0,110.0 Q133.0,105.0 134.0,99.5 Q135.0,94.0 137.0,88.0 Q139.0,82.0 142.0,70.0 Z"/></clipPath>
<clipPath id="offset_clip_1"><path d="M98.0,70.0 L101.0,82.0 Q101.0,82.0 103.0,88.0 Q105.0,94.0 106.0,99.5 Q107.0,105.0 105.0,110.0 Q103.0,115.0 101.0,120.0 Q99.0,125.0 97.5,130.0 Q96.0,135.0 96.0,140.0 Q96.0,145.0 98.0,148.5 Q100.0,152.0 103.0,154.5 Q106.0,157.0 114.0,160.0 L114.0,160.0 Q114.0,160.0 115.0,161.5 Q116.0,163.0 116.5,164.0 Q117.0,165.0 118.0,165.5 Q119.0,166.0 119.5,166.0 Q120.0,166.0 120.5,166.0 Q121.0,166.0 122.0,165.5 Q123.0,165.0 123.5,164.0 Q124.0,163.0 126.0,160.0 L126.0,160.0 Q126.0,160.0 130.0,158.5 Q134.0,157.0 137.0,154.5 Q140.0,152.0 142.0,148.5 Q144.0,145.0 144.0,140.0 Q144.0,135.0 142.5,130.0 Q141.0,125.0 139.0,120.0 Q137.0,115.0 135.0,110.0 Q133.0,105.0 134.0,99.5 Q135.0,94.0 137.0,88.0 Q139.0,82.0 142.0,70.0 Z" transform="translate(80.0,40.0)"/></clipPath>
<linearGradient id="grad_2" x1="0" y1="0" x2="0" y2="1"><stop offset="0%" stop-color="#d09c65"/><stop offset="100%" stop-color="#C88B4A"/></linearGradient>
<linearGradient id="grad_3" x1="0" y1="0" x2="0" y2="1"><stop offset="0%" stop-color="#ebd84f"/><stop offset="100%" stop-color="#E8D130"/></linearGradient>
</defs>
<g transform="translate(80.0,40.0)">
<path d="M92.0,70.0 L95.0,82.0 Q95.0,82.0 97.0,88.0 Q99.0,94.0 100.5,99.5 Q102.0,105.0 100.0,110.0 Q98.0,115.0 96.0,120.0 Q94.0,125.0 92.0,130.0 Q90.0,135.0 90.0,140.0 Q90.0,145.0 92.0,149.0 Q94.0,153.0 97.0,156.5 Q100.0,160.0 110.0,165.0 L110.0,165.0 Q110.0,165.0 111.0,166.5 Q112.0,168.0 113.0,169.0 Q114.0,170.0 115.5,170.5 Q117.0,171.0 118.5,171.5 Q120.0,172.0 121.5,171.5 Q123.0,171.0 124.5,170.5 Q126.0,170.0 127.0,169.0 Q128.0,168.0 130.0,165.0 L130.0,165.0 Q130.0,165.0 135.0,162.5 Q140.0,160.0 143.0,156.5 Q146.0,153.0 148.0,149.0 Q150.0,145.0 150.0,140.0 Q150.0,135.0 148.0,130.0 Q146.0,125.0 144.0,120.0 Q142.0,115.0 140.0,110.0 Q138.0,105.0 139.5,99.5 Q141.0,94.0 143.0,88.0 Q145.0,82.0 148.0,70.0 Z M116.0,172.0 L116.0,186.0 L116.0,200.0 L124.0,200.0 L124.0,186.0 L124.0,172.0 Z M116.0,200.0 L113.0,202.0 L108.0,204.0 L102.0,206.0 L96.0,207.0 L90.0,208.0 L90.0,208.0 L90.0,209.0 L91.0,210.0 L120.0,210.0 L149.0,210.0 L150.0,209.0 L150.0,208.0 L150.0,208.0 L144.0,207.0 L138.0,206.0 L132.0,204.0 L127.0,202.0 L124.0,200.0 Z" fill="rgba(255,255,255,0.95)" stroke="rgba(200,200,210,0.8)" stroke-width="1.5" stroke-linejoin="round"/>
</g>
<g clip-path="url(#offset_clip_1)">
<rect x="176.0" y="174.58181818181816" width="48.0" height="51.41818181818182" fill="url(#grad_2)"><title>White Rum</title></rect><rect x="176.0" y="151.0181818181818" width="48.0" height="23.563636363636363" fill="#C8C8C8" stroke="#808080" stroke-dasharray="4 2" stroke-width="1"><title>coconut-cream</title></rect><rect x="176.0" y="127.45454545454544" width="48.0" height="23.563636363636363" fill="#C8C8C8" stroke="#808080" stroke-dasharray="4 2" stroke-width="1"><title>pineapple-juice</title></rect><rect x="176.0" y="119.59999999999998" width="48.0" height="7.854545454545455" fill="url(#grad_3)"><title>Lime Juice</title></rect>
</g>
<path d="M224.0,123.5272727272727 L232.0,123.5272727272727 L232.0,123.5272727272727 L236.0,123.5272727272727" fill="none" stroke="#888" stroke-width="0.75"/>
<text x="238.0" y="127.19393939393937" font-family="system-ui, sans-serif" font-size="11.0px" fill="#ccc">Lime Juice</text>
<path d="M224.0,139.23636363636362 L232.0,139.23636363636362 L232.0,141.5272727272727 L236.0,141.5272727272727" fill="none" stroke="#888" stroke-width="0.75"/>
<text x="238.0" y="145.19393939393936" font-family="system-ui, sans-serif" font-size="11.0px" fill="#ccc">pineapple-juice</text>
<path d="M224.0,162.79999999999998 L232.0,162.79999999999998 L232.0,162.79999999999998 L236.0,162.79999999999998" fill="none" stroke="#888" stroke-width="0.75"/>
<text x="238.0" y="166.46666666666664" font-family="system-ui, sans-serif" font-size="11.0px" fill="#ccc">coconut-cream</text>
<path d="M224.0,190.29090909090908 L232.0,190.29090909090908 L232.0,190.29090909090908 L236.0,190.29090909090908" fill="none" stroke="#888" stroke-width="0.75"/>
<text x="238.0" y="193.95757575757574" font-family="system-ui, sans-serif" font-size="11.0px" fill="#ccc">White Rum</text>
</svg>
