<svg xmlns="http://www.w3.org/2000/svg" viewBox="0 0 400 360">
<rect width="400" height="360" fill="#2C2C3A"/>
<defs>
<clipPath id="glass_clip_0"><path d="M86.0,100.0 L96.0,175.0 L96.0,175.0 Q96.0,175.0 96.0,176.5 Q96.0,178.0 96.5,179.5 Q97.0,181.0 98.0,182.0 Q99.0,183.0 100.0,184.0 Q101.0,185.0 102.5,185.5 Q104.0,186.0 105.5,186.5 Q107.0,187.0 108.5,187.0 Q110.0,187.0 120.0,187.0 Q130.0,187.0 131.5,187.0 Q133.0,187.0 134.5,186.5 Q136.0,186.0 137.5,185.5 Q139.0,185.0 140.0,184.0 Q141.0,183.0 142.0,182.0 Q143.0,181.0 143.5,179.5 Q144.0,178.0 144.0,175.0 L144.0,175.0 L154.0,100.0 Z"/></clipPath>
<clipPath id="offset_clip_1"><path d="M86.0,100.0 L96.0,175.0 L96.0,175.0 Q96.0,175.0 96.0,176.5 Q96.0,178.0 96.5,179.5 Q97.0,181.0 98.0,182.0 Q99.0,183.0 100.0,184.0 Q101.0,185.0 102.5,185.5 Q104.0,186.0 105.5,186.5 Q107.0,187.0 108.5,187.0 Q110.0,187.0 120.0,187.0 Q130.0,187.0 131.5,187.0 Q133.0,187.0 134.5,186.5 Q136.0,186.0 137.5,185.5 Q139.0,185.0 140.0,184.0 Q141.0,183.0 142.0,182.0 Q143.0,181.0 143.5,179.5 Q144.0,178.0 144.0,175.0 L144.0,175.0 L154.0,100.0 Z" transform="translate(80.0,40.0)"/></clipPath>
<linearGradient id="grad_2" x1="0" y1="0" x2="0" y2="1"><stop offset="0%" stop-color="#d09c65"/><stop offset="100%" stop-color="#C88B4A"/></linearGradient>
<linearGradient id="grad_3" x1="0" y1="0" x2="0" y2="1"><stop offset="0%" stop-color="#d0344d"/><stop offset="100%" stop-color="#C8102E"/></linearGradient>
<linearGradient id="grad_4" x1="0" y1="0" x2="0" y2="1"><stop offset="0%" stop-color="#ebd84f"/><stop offset="100%" stop-color="#E8D130"/></linearGradient>
<linearGradient id="grad_5" x1="0" y1="0" x2="0" y2="1"><stop offset="0%" stop-color="#dab56d"/><stop offset="100%" stop-color="#D4A853"/></linearGradient>
</defs>
<g transform="translate(80.0,40.0)">
<path d="M80.0,100.0 L90.0,185.0 L90.0,185.0 Q90.0,185.0 90.0,186.0 Q90.0,187.0 90.5,188.0 Q91.0,189.0 91.5,190.0 Q92.0,191.0 93.0,192.0 Q94.0,193.0 95.0,193.5 Q96.0,194.0 97.0,194.5 Q98.0,195.0 99.0,195.0 Q100.0,195.0 120.0,195.0 Q140.0,195.0 141.0,195.0 Q142.0,195.0 143.0,194.5 Q144.0,194.0 145.0,193.5 Q146.0,193.0 147.0,192.0 Q148.0,191.0 148.5,190.0 Q149.0,189.0 149.5,188.0 Q150.0,187.0 150.0,185.0 L150.0,185.0 L160.0,100.0 Z" fill="rgba(255,255,255,0.95)" stroke="rgba(200,200,210,0.8)" stroke-width="1.5" stroke-linejoin="round"/>
</g>
<g clip-path="url(#offset_clip_1)">
<rect x="166.0" y="207.21894736842106" width="68.0" height="39.781052631578945" fill="url(#grad_2)"><title>Jamaican Rum</title></rect><rect x="166.0" y="197.32842105263157" width="68.0" height="9.890526315789474" fill="url(#grad_3)"><title>Campari</title></rect><rect x="166.0" y="190.73473684210526" width="68.0" height="6.593684210526315" fill="url(#grad_4)"><title>Lime Juice</title></rect><rect x="166.0" y="170.95368421052632" width="68.0" height="19.781052631578948" fill="#C8C8C8" stroke="#808080" stroke-dasharray="4 2" stroke-width="1"><title>pineapple-juice</title></rect><rect x="166.0" y="164.36" width="68.0" height="6.593684210526315" fill="url(#grad_5)"><title>Demerara Syrup</title></rect>
</g>
<g clip-path="url(#offset_clip_1)" transform="translate(166.0,140.0)"><path d="M75,65 L155,65 L155,145 L75,145 Z M75,65 L95,48 L175,48 L155,65 M155,65 L175,48 L175,128 L155,145" fill="rgba(200,220,240,0.7)" stroke="rgba(150,170,190,0.9)" stroke-width="1"/></g>
<g transform="translate(192.0,37.0)"><path d="M2,12 L8,2 L14,12 Z M5,9 L8,4 L11,9" fill="#aaa" stroke="none"/><title>pineapple-wedge</title></g>
<path d="M234.0,167.65684210526317 L242.0,167.65684210526317 L242.0,167.65684210526317 L246.0,167.65684210526317" fill="none" stroke="#888" stroke-width="0.75"/>
<text x="248.0" y="171.32350877192982" font-family="system-ui, sans-serif" font-size="11.0px" fill="#ccc">Demerara Syrup</text>
<path d="M234.0,180.8442105263158 L242.0,180.8442105263158 L242.0,185.65684210526317 L246.0,185.65684210526317" fill="none" stroke="#888" stroke-width="0.75"/>
<text x="248.0" y="189.32350877192982" font-family="system-ui, sans-serif" font-size="11.0px" fill="#ccc">pineapple-juice</text>
<path d="M234.0,194.03157894736842 L242.0,194.03157894736842 L242.0,203.65684210526317 L246.0,203.65684210526317" fill="none" stroke="#888" stroke-width="0.75"/>
<text x="248.0" y="207.32350877192982" font-family="system-ui, sans-serif" font-size="11.0px" fill="#ccc">Lime Juice</text>
<path d="M234.0,202.2736842105263 L242.0,202.2736842105263 L242.0,221.65684210526317 L246.0,221.65684210526317" fill="none" stroke="#888" stroke-width="0.75"/>
<text x="248.0" y="225.32350877192982" font-family="system-ui, sans-serif" font-size="11.0px" fill="#ccc">Campari</text>
<path d="M234.0,217.10947368421054 L242.0,217.10947368421054 L242.0,239.65684210526317 L246.0,239.65684210526317" fill="none" stroke="#888" stroke-width="0.75"/>
<text x="248.0" y="243.32350877192982" font-family="system-ui, sans-serif" font-size="11.0px" fill="#ccc">Jamaican Rum</text>
</svg>
